<svg data-name="Layer 1" xmlns="http://www.w3.org/2000/svg" viewBox="0 0 122.88 108.51"><path fill="var(--red-500)" d="M63.09 0h.07c16.71.55 31.72 6.5 42.47 15.71 11 9.46 17.65 22.35 17.23 36.44a43.29 43.29 0 0 1-7.66 23.16 55.15 55.15 0 0 1-19.57 17.31 72.81 72.81 0 0 1-28.39 8.64 62.2 62.2 0 0 1-26.46-3.42L5.31 108.51l10.18-25.66a49 49 0 0 1-10-12.29A40.8 40.8 0 0 1 .24 45.81 45.39 45.39 0 0 1 10 22.61 55.78 55.78 0 0 1 26.33 8.8 67.06 67.06 0 0 1 43.85 2a73.89 73.89 0 0 1 19.22-2ZM44 35.19h8.11a5.68 5.68 0 0 1 5.67 5.67c0 11.67 3 24.49-11.32 28.15-6.48 1.66-8.17-5.48-1.28-6 4.2-.3 5-3 5.16-7.12h-6.55a5.68 5.68 0 0 1-5.67-5.67V41A5.86 5.86 0 0 1 44 35.19Zm26.77 0h8.1a5.69 5.69 0 0 1 5.68 5.67c0 11.67 3 24.49-11.33 28.15-6.48 1.66-8.17-5.48-1.27-6 4.2-.3 5-3 5.15-7.12h-6.5a5.68 5.68 0 0 1-5.67-5.67V41a5.85 5.85 0 0 1 5.84-5.84ZM62.86 9.4h-.06A64.24 64.24 0 0 0 46 11.1 57.64 57.64 0 0 0 31 17a46.7 46.7 0 0 0-13.62 11.41 35.94 35.94 0 0 0-7.81 18.4 31.49 31.49 0 0 0 4 19.12A41.23 41.23 0 0 0 24 77.77l2.73 2.16-5.55 14 20-6 1.5.59a52.84 52.84 0 0 0 23.79 3.38 63.56 63.56 0 0 0 24.72-7.54 45.76 45.76 0 0 0 16.26-14.27 34 34 0 0 0 6-18.17c.32-11.11-5-21.4-14-29-9.21-7.9-22.15-13-36.65-13.44Z"/></svg>