<svg width="40" height="40" fill="none" xmlns="http://www.w3.org/2000/svg"><g clip-path="url(#a)"><path d="M39.534 33.577 23.978 2.466a4.445 4.445 0 0 0-7.955 0L.467 33.576a4.39 4.39 0 0 0 .2 4.312A4.445 4.445 0 0 0 4.445 40h31.111a4.432 4.432 0 0 0 3.778-2.11 4.371 4.371 0 0 0 .2-4.312Zm-19.533 1.978a3.334 3.334 0 1 1 0-6.668 3.334 3.334 0 0 1 0 6.668Zm2.177-10.68a2.222 2.222 0 0 1-4.355 0l-2.2-11.111A2.22 2.22 0 0 1 17.8 11.11h4.406a2.221 2.221 0 0 1 2.178 2.654l-2.207 11.11Z" fill="#494C4E"/></g><defs><clipPath id="a"><path fill="#fff" d="M0 0h40v40H0z"/></clipPath></defs></svg>