<svg width="40" height="40" fill="none" xmlns="http://www.w3.org/2000/svg"><path d="M20 1.895a18.107 18.107 0 1 0 18.107 18.107A18.128 18.128 0 0 0 20 1.895Zm0 32.639a14.532 14.532 0 1 1 14.532-14.532A14.548 14.548 0 0 1 20 34.534Z" fill="#222"/><path d="M19.215 14.693a2.42 2.42 0 1 0 0-4.842 2.42 2.42 0 0 0 0 4.842ZM17.63 16.86a1.44 1.44 0 0 0 .252 2.856h.142v7.971h-.77a1.231 1.231 0 0 0-1.23 1.231 1.231 1.231 0 0 0 1.23 1.232h5.492a1.232 1.232 0 0 0 1.232-1.232 1.231 1.231 0 0 0-1.232-1.23h-.761V17.511a1.243 1.243 0 0 0-1.484-1.219c-1.242.246-2.821.559-2.87.567Z" fill="#222"/></svg>