<svg width="46" height="46" viewBox="0 0 46 46" fill="none" xmlns="http://www.w3.org/2000/svg">
<path fill-rule="evenodd" clip-rule="evenodd" d="M30.1111 18.7907C28.2115 18.7915 26.6708 20.3322 26.6699 22.2318C26.669 24.1314 28.2082 25.6706 30.1078 25.6697L38.2675 25.666C35.4733 34.0531 30.84 42.1301 25.459 44.0163C24.9366 44.1994 24.4072 44.1394 23.8717 44.0786C23.6017 44.048 23.3301 44.0172 23.0571 44.0174C22.7842 44.0175 22.5126 44.0485 22.2426 44.0794L22.2425 44.0794C21.707 44.1406 21.1776 44.2011 20.6553 44.0184C15.2761 42.1371 10.6505 34.0644 7.86427 25.68L16.0176 25.6763C17.9172 25.6754 19.4578 24.1348 19.4587 22.2352C19.4596 20.3356 17.9204 18.7963 16.0208 18.7972L6.08718 18.8017C6.05906 18.8017 6.03102 18.8021 6.00306 18.8028C5.39006 15.862 5.05824 13.0932 5.05934 10.7767C5.0637 1.6335 10.2536 1.99263 17.4424 2.49007C19.215 2.61272 21.109 2.74378 23.0768 2.74289C25.0446 2.74199 26.9388 2.60921 28.7114 2.48494C35.9007 1.98096 41.091 1.61712 41.0866 10.7603C41.0855 13.0768 40.7511 15.8459 40.1353 18.7873C40.1052 18.7865 40.075 18.7861 40.0448 18.7861L30.1111 18.7907Z" fill="url(#paint0_radial_221_42)"/>
<defs>
<radialGradient id="paint0_radial_221_42" cx="0" cy="0" r="1" gradientUnits="userSpaceOnUse" gradientTransform="translate(23.1974 23.1663) rotate(179.425) scale(18.0141 20.9865)">
<stop stop-color="currentColor"/>
<stop offset="1" stop-color="currentColor"/>
</radialGradient>
</defs>
</svg>
